<?xml version="1.0" encoding="UTF-8" standalone="no"?>
<!-- Created with Inkscape (http://www.inkscape.org/) -->

<svg
   width="120"
   height="120"
   viewBox="0 0 120 120"
   version="1.1"
   id="svg1"
   xmlns="http://www.w3.org/2000/svg"
   xmlns:svg="http://www.w3.org/2000/svg">
  <defs
     id="defs1" />
  <g
     id="layer2"
     style="display:none">
    <rect
       style="display:inline;fill:#f4f4f4;fill-opacity:1;stroke:none;stroke-width:10;stroke-linecap:round;stroke-dasharray:none;stroke-opacity:1"
       id="rect9"
       width="120"
       height="120"
       x="0"
       y="0" />
    <rect
       style="display:none;fill:#282828;fill-opacity:1;stroke:none;stroke-width:10;stroke-linecap:round;stroke-dasharray:none;stroke-opacity:1"
       id="rect10"
       width="120"
       height="120"
       x="0"
       y="0" />
  </g>
  <g
     id="g24"
     style="display:inline"
     transform="matrix(-1.12724,0,0,1.1338303,129.45062,-4.9408207)">
    <path
       id="path24"
       style="baseline-shift:baseline;display:inline;overflow:visible;opacity:1;vector-effect:none;fill:#f4f4f4;fill-opacity:1;stroke-linejoin:round;enable-background:accumulate;stop-color:#000000;stop-opacity:1"
       d="M 102.14096,4.3617534 C 99.516706,4.4933323 96.85725,4.1530158 94.256892,4.58732 c -1.972141,0.4811188 -3.743129,2.0098201 -4.097535,4.0695411 -0.380686,2.0019499 -0.09389,4.0538299 -0.182463,6.0775479 -0.04056,0.904994 0.08036,1.862677 -0.05898,2.735445 -2.716338,3.723381 -5.550105,7.539918 -9.447952,10.108554 -2.621396,1.736915 -5.889475,2.296208 -8.975494,1.849751 -0.03924,-2.24049 0.296303,-4.683821 -0.945312,-6.685547 -0.783744,-1.434636 -2.322985,-2.275814 -3.91951,-2.426712 -1.462261,-0.227558 -2.862412,-0.0046 -4.26799,-0.08305 -2.443393,0.04502 -5.152205,-0.371468 -7.265266,1.162843 -1.400356,0.886953 -2.025925,2.531506 -2.140847,4.122557 -0.106494,0.921146 -0.02657,2.013961 -0.01866,2.834126 -0.0323,2.749796 -0.01021,5.501102 -0.01663,8.251568 -3.009843,5.767363 -6.029685,11.610114 -10.186855,16.653461 -2.246436,2.621668 -5.141573,5.012453 -8.675758,5.474173 -0.389167,0.04483 -0.998736,0.283971 -0.807441,-0.337785 -0.02596,-2.02025 0.10995,-4.059184 -0.128703,-6.066278 -0.423256,-1.981543 -1.799248,-3.954997 -3.911016,-4.316009 -1.692513,-0.469801 -3.432457,-0.167637 -5.092962,-0.251312 -2.443392,0.04502 -5.152204,-0.371468 -7.265266,1.162843 -1.400355,0.886953 -2.025925,2.531506 -2.140846,4.122557 -0.106495,0.921146 -0.02657,2.013961 -0.01867,2.834126 -0.03845,11.890961 -0.0058,23.783734 -0.01663,35.675396 -2.274116,0.0092 -4.7891731,1.139841 -5.5605471,3.429687 -0.7722055,2.086569 -0.2970188,4.344316 -0.4656307,6.510277 0.016029,2.06109 -0.2272913,4.29359 0.9350487,6.12039 0.7911551,1.46861 2.3807951,2.29883 4.0043261,2.43986 1.687326,0.21279 3.280715,-0.003 4.948775,0.0445 9.763556,-0.18201 19.755674,-1.32654 28.690172,-5.51432 8.618444,-3.96165 16.070903,-9.968128 23.243113,-16.080473 2.513397,-2.505056 4.906698,-5.139111 7.655618,-7.396341 6.911954,-5.921286 15.195317,-10.519318 24.247499,-12.032749 2.45382,-0.454074 4.95634,-0.508741 7.43639,-0.665372 2.03226,-0.443498 4.12173,-1.818838 4.45626,-4.018798 0.49733,-2.096136 0.11503,-4.26309 0.23515,-6.391359 0.0932,-2.140436 0.0583,-4.508159 -1.40969,-6.230815 -1.04971,-1.390281 -2.88364,-1.811281 -4.53758,-1.853169 -0.008,-13.442993 0.0162,-26.887972 -0.0122,-40.3297232 -0.29439,-2.1512468 -1.61356,-4.4670856 -3.89961,-4.9190545 -0.80598,-0.2536815 -1.66135,-0.319614 -2.50227,-0.3059089 z M 89.976894,53.13519 c -6.609589,2.229149 -12.816943,5.567234 -18.478516,9.626953 10e-7,-6.095703 0,-12.191406 0,-18.287109 6.352326,0.417451 12.89516,-1.182492 18.105378,-4.904979 0.673482,-0.674612 0.260377,0.737002 0.373138,1.138963 0,4.142057 0,8.284115 0,12.426172 z m -37.05664,24.292969 c -0.08296,0.522916 0.129999,1.147477 -0.07149,1.608301 -5.144903,4.152761 -10.491448,8.374053 -16.884102,10.401273 -0.891657,0.290568 -1.795556,0.545521 -2.710422,0.752144 0,-5.46875 0,-10.937499 0,-16.40625 6.39079,-0.289112 12.695678,-2.778534 17.397957,-7.14824 0.788502,-0.701526 1.544854,-1.438582 2.268059,-2.207228 0,4.333333 -1e-6,8.666666 0,13 z" />
  </g>
  <g
     id="layer1"
     style="display:inline">
    <g
       id="g8"
       style="display:inline"
       transform="matrix(-1.12724,0,0,1.1338303,129.45062,-4.9408207)">
      <path
         style="fill:none;fill-opacity:0;stroke:#2a2a2a;stroke-width:4.4227;stroke-linecap:butt;stroke-linejoin:miter;stroke-dasharray:none;stroke-opacity:1"
         d="M 99.266694,17.214338 C 88.756218,32.820421 81.072542,41.32969 62.209756,34.885414"
         id="path3" />
      <path
         style="fill:none;fill-opacity:0;stroke:#2a2a2a;stroke-width:4.4227;stroke-linecap:butt;stroke-linejoin:miter;stroke-dasharray:none;stroke-opacity:1"
         d="M 62.209756,34.885414 C 49.641887,60.244565 42.697529,70.44355 21.904209,64.876103"
         id="path4" />
      <path
         style="fill:none;fill-opacity:0;stroke:#2a2a2a;stroke-width:7.96087;stroke-linecap:square;stroke-linejoin:miter;stroke-dasharray:none;stroke-opacity:1"
         d="M 62.209756,77.428475 V 29.517316"
         id="path5" />
      <path
         style="fill:none;fill-opacity:0;stroke:#2a2a2a;stroke-width:7.96087;stroke-linecap:square;stroke-linejoin:miter;stroke-dasharray:none;stroke-opacity:1"
         d="M 99.266694,57.431954 V 13.666745"
         id="path6" />
      <path
         style="fill:none;fill-opacity:0;stroke:#2a2a2a;stroke-width:7.96087;stroke-linecap:square;stroke-linejoin:miter;stroke-dasharray:none;stroke-opacity:1"
         d="M 23.965941,97.186381 V 57.045823"
         id="path7" />
      <path
         style="baseline-shift:baseline;display:inline;overflow:visible;opacity:1;vector-effect:none;fill:#2a2a2a;stroke-linejoin:round;enable-background:accumulate;stop-color:#000000;stop-opacity:1"
         d="m 109.19955,55.22894 c -17.201931,0 -33.668201,8.317976 -47.537109,23.390625 C 43.260543,94.146673 38.2816,97.00276 13.992519,96.863706 l -0.04492,7.960934 C 39.075919,104.9685 48.11551,100.476 66.881193,84.637143 A 3.9808329,3.9808329 0 0 0 67.25424,84.277768 C 80.059133,70.240273 94.438897,63.189877 109.19955,63.189877 Z"
         id="path2" />
    </g>
  </g>
</svg>
